<?xml version="1.0" ?><svg xmlns="http://www.w3.org/2000/svg" xmlns:xlink="http://www.w3.org/1999/xlink" version="1.1" id="Layer_1" viewBox="0 0 100 100" style="enable-background:new 0 0 100 100;" xml:space="preserve"><style type="text/css">
	.st0{fill:#0389F7;}
	.st1{fill:#CCE9FF;}
	.st2{fill:#85D6FF;}
	.st3{fill:#F1920C;}
	.st4{fill:#FFBCA7;}
	.st5{fill:#005EB8;}
</style><g><path class="st0" d="M61.3,30.4H38.7c-0.6,0-1.1-0.5-1.1-1.1v-8.8c0-0.6,0.5-1.1,1.1-1.1h22.5c0.6,0,1.1,0.5,1.1,1.1v8.8   C62.4,29.9,61.9,30.4,61.3,30.4z"/><path class="st1" d="M79.5,80.6H20.5c-2.1,0-3.8-1.7-3.8-3.8V38.3c0-2.1,1.7-3.8,3.8-3.8h58.9c2.1,0,3.8,1.7,3.8,3.8v38.5   C83.2,78.9,81.6,80.6,79.5,80.6z"/><path class="st2" d="M54.9,44h-9.9c-1.6,0-2.8-1.3-2.8-2.8V30.4h15.5v10.8C57.8,42.7,56.5,44,54.9,44z"/><path class="st3" d="M43,72.2v-9.6c0-3.3-2.7-6-6-6h-7.5c-3.3,0-6,2.7-6,6v9.6H43z"/><path class="st4" d="M33.3,56.6L33.3,56.6c-3.3,0-5.9-2.6-5.9-5.9v-4.1c0-3.3,2.6-5.9,5.9-5.9h0c3.3,0,5.9,2.6,5.9,5.9v4.1   C39.2,53.9,36.5,56.6,33.3,56.6z"/><path class="st0" d="M74.6,68.6H55.2c-1,0-1.8,0.8-1.8,1.8l0,0c0,1,0.8,1.8,1.8,1.8h19.4c1,0,1.8-0.8,1.8-1.8l0,0   C76.4,69.4,75.6,68.6,74.6,68.6z"/><path class="st0" d="M74.6,60.4H55.2c-1,0-1.8,0.8-1.8,1.8v0c0,1,0.8,1.8,1.8,1.8h19.4c1,0,1.8-0.8,1.8-1.8v0   C76.4,61.2,75.6,60.4,74.6,60.4z"/><path class="st0" d="M66,52.1H55.2c-1,0-1.8,0.8-1.8,1.8v0c0,1,0.8,1.8,1.8,1.8H66c1,0,1.8-0.8,1.8-1.8v0   C67.8,52.9,67,52.1,66,52.1z"/><path class="st5" d="M30.7,56.6v5.3c0,1.4,1.1,2.5,2.5,2.5c1.4,0,2.5-1.1,2.5-2.5v-5.3H30.7z"/></g></svg>